<svg xmlns="http://www.w3.org/2000/svg" style="min-width: 1463px; min-height: 625px; margin-top: 0px; background-color: rgb(255, 255, 255);" width="1902" height="1750.5"><g id="tree__group" transform="translate(442,709)scale(1)"><path class="mindmap__link" fill="none" d="M162,0C192,0,192,-552.5,222,-552.5" stroke="#00B548"/><path class="mindmap__link" fill="none" d="M162,0C192,0,192,-292.5,222,-292.5" stroke="#00B548"/><path class="mindmap__link" fill="none" d="M162,0C192,0,192,-32.5,222,-32.5" stroke="#00B548"/><path class="mindmap__link" fill="none" d="M162,0C192,0,192,552.5,222,552.5" stroke="#00B548"/><path class="mindmap__link" fill="none" d="M327,-552.5C357,-552.5,357,-650,387,-650" stroke="#00B548"/><path class="mindmap__link" fill="none" d="M327,-552.5C357,-552.5,357,-585,387,-585" stroke="#00B548"/><path class="mindmap__link" fill="none" d="M327,-552.5C357,-552.5,357,-520,387,-520" stroke="#00B548"/><path class="mindmap__link" fill="none" d="M327,-552.5C357,-552.5,357,-455,387,-455" stroke="#00B548"/><path class="mindmap__link" fill="none" d="M436,-292.5C466,-292.5,466,-390,496,-390" stroke="#00B548"/><path class="mindmap__link" fill="none" d="M436,-292.5C466,-292.5,466,-325,496,-325" stroke="#00B548"/><path class="mindmap__link" fill="none" d="M436,-292.5C466,-292.5,466,-260,496,-260" stroke="#00B548"/><path class="mindmap__link" fill="none" d="M436,-292.5C466,-292.5,466,-195,496,-195" stroke="#00B548"/><path class="mindmap__link" fill="none" d="M327,-32.5C357,-32.5,357,-130,387,-130" stroke="#00B548"/><path class="mindmap__link" fill="none" d="M327,-32.5C357,-32.5,357,-65,387,-65" stroke="#00B548"/><path class="mindmap__link" fill="none" d="M327,-32.5C357,-32.5,357,0,387,0" stroke="#00B548"/><path class="mindmap__link" fill="none" d="M327,-32.5C357,-32.5,357,65,387,65" stroke="#00B548"/><path class="mindmap__link" fill="none" d="M292,552.5C322,552.5,322,195,352,195" stroke="#00B548"/><path class="mindmap__link" fill="none" d="M292,552.5C322,552.5,322,341.25,352,341.25" stroke="#00B548"/><path class="mindmap__link" fill="none" d="M292,552.5C322,552.5,322,422.5,352,422.5" stroke="#00B548"/><path class="mindmap__link" fill="none" d="M292,552.5C322,552.5,322,747.5,352,747.5" stroke="#00B548"/><path class="mindmap__link" fill="none" d="M292,552.5C322,552.5,322,910,352,910" stroke="#00B548"/><path class="mindmap__link" fill="none" d="M490,195C520,195,520,130,550,130" stroke="#00B548"/><path class="mindmap__link" fill="none" d="M490,195C520,195,520,195,550,195" stroke="#00B548"/><path class="mindmap__link" fill="none" d="M490,195C520,195,520,260,550,260" stroke="#00B548"/><path class="mindmap__link" fill="none" d="M539,422.5C569,422.5,569,325,599,325" stroke="#00B548"/><path class="mindmap__link" fill="none" d="M539,422.5C569,422.5,569,390,599,390" stroke="#00B548"/><path class="mindmap__link" fill="none" d="M539,422.5C569,422.5,569,455,599,455" stroke="#00B548"/><path class="mindmap__link" fill="none" d="M539,422.5C569,422.5,569,520,599,520" stroke="#00B548"/><path class="mindmap__link" fill="none" d="M545,747.5C575,747.5,575,682.5,605,682.5" stroke="#00B548"/><path class="mindmap__link" fill="none" d="M545,747.5C575,747.5,575,747.5,605,747.5" stroke="#00B548"/><path class="mindmap__link" fill="none" d="M545,747.5C575,747.5,575,812.5,605,812.5" stroke="#00B548"/><path class="mindmap__link" fill="none" d="M541,910C571,910,571,877.5,601,877.5" stroke="#00B548"/><path class="mindmap__link" fill="none" d="M541,910C571,910,571,942.5,601,942.5" stroke="#00B548"/><path class="mindmap__link" fill="none" d="M745,520C775,520,775,422.5,805,422.5" stroke="#00B548"/><path class="mindmap__link" fill="none" d="M745,520C775,520,775,487.5,805,487.5" stroke="#00B548"/><path class="mindmap__link" fill="none" d="M745,520C775,520,775,552.5,805,552.5" stroke="#00B548"/><path class="mindmap__link" fill="none" d="M745,520C775,520,775,617.5,805,617.5" stroke="#00B548"/><g class="node node--1" transform="translate(0,0)"><rect class="node__content-container" rx="8" width="162" height="48" y="-24" fill="#00B548"/><g class="node__content-text" transform="translate(20,5)"><text fill="#FFFFFF" y="2" style="font-size: 20px; user-select: none;">Java并发编程</text></g><rect class="drag-section" fill="transparent" width="187" height="88" y="-44"/><g class="node__circle-group" style="visibility: hidden;"><rect class="node__circle-count" rx="10" y="-12" width="45" x="162" fill="#F2F2F2" style="visibility: hidden;"/><text y="4" fill="#424242" x="190" style="visibility: hidden; user-select: none;"/><circle class="node__circle" r="12" cx="174" stroke="#F2F2F2" fill="#FFFFFF" stroke-width="2px"/><image class="node__circle-icon" width="12" height="12" y="-6" xmlns:xlink="http://www.w3.org/1999/xlink" xlink:href="data:image/svg+xml;charset=utf-8,%3Csvg%20version%3D%221.1%22%20id%3D%22Capa_1%22%20xmlns%3D%22http%3A%2F%2Fwww.w3.org%2F2000%2Fsvg%22%20xmlns%3Axlink%3D%22http%3A%2F%2Fwww.w3.org%2F1999%2Fxlink%22%20x%3D%220px%22%20y%3D%220px%22%0A%09%20viewBox%3D%220%200%2042%2042%22%20style%3D%22enable-background%3Anew%200%200%2042%2042%3B%22%20xml%3Aspace%3D%22preserve%22%3E%0A%3Crect%20y%3D%2219%22%20width%3D%2242%22%20height%3D%224%22%2F%3E%0A%3C%2Fsvg%3E" x="168"/></g></g><g class="node node--29ec2ef5-58fc-4c4c-9fdb-9310499962f4" transform="translate(222,-552.5)"><rect class="drag-section" fill="transparent" width="130" height="84" y="-42"/><rect class="node__content-container" rx="8" width="105" height="44" y="-22" fill="#F2F2F2"/><g class="node__content-text" transform="translate(20,5)"><text fill="#424242" y="0" style="font-size: 16px; user-select: none;">线程状态</text></g><g class="node__circle-group" style="visibility: hidden;"><rect class="node__circle-count" rx="10" y="-12" width="45" x="105" fill="#F2F2F2" style="visibility: hidden;"/><text y="4" fill="#424242" x="133" style="visibility: hidden; user-select: none;"/><circle class="node__circle" r="12" cx="117" stroke="#F2F2F2" fill="#FFFFFF" stroke-width="2px"/><image class="node__circle-icon" width="12" height="12" y="-6" xmlns:xlink="http://www.w3.org/1999/xlink" xlink:href="data:image/svg+xml;charset=utf-8,%3Csvg%20version%3D%221.1%22%20id%3D%22Capa_1%22%20xmlns%3D%22http%3A%2F%2Fwww.w3.org%2F2000%2Fsvg%22%20xmlns%3Axlink%3D%22http%3A%2F%2Fwww.w3.org%2F1999%2Fxlink%22%20x%3D%220px%22%20y%3D%220px%22%0A%09%20viewBox%3D%220%200%2042%2042%22%20style%3D%22enable-background%3Anew%200%200%2042%2042%3B%22%20xml%3Aspace%3D%22preserve%22%3E%0A%3Crect%20y%3D%2219%22%20width%3D%2242%22%20height%3D%224%22%2F%3E%0A%3C%2Fsvg%3E" x="111"/></g></g><g class="node node--00daa167-b0ba-4e9e-8337-45ca21aad282" transform="translate(222,-292.5)"><rect class="drag-section" fill="transparent" width="239" height="84" y="-42"/><rect class="node__content-container" rx="8" width="214" height="44" y="-22" fill="#F2F2F2"/><g class="node__content-text" transform="translate(20,5)"><text fill="#424242" y="0" style="font-size: 16px; user-select: none;">JDK自带线程池拒绝策略</text></g><g class="node__circle-group" style="visibility: hidden;"><rect class="node__circle-count" rx="10" y="-12" width="45" x="214" fill="#F2F2F2" style="visibility: hidden;"/><text y="4" fill="#424242" x="242" style="visibility: hidden; user-select: none;"/><circle class="node__circle" r="12" cx="226" stroke="#F2F2F2" fill="#FFFFFF" stroke-width="2px"/><image class="node__circle-icon" width="12" height="12" y="-6" xmlns:xlink="http://www.w3.org/1999/xlink" xlink:href="data:image/svg+xml;charset=utf-8,%3Csvg%20version%3D%221.1%22%20id%3D%22Capa_1%22%20xmlns%3D%22http%3A%2F%2Fwww.w3.org%2F2000%2Fsvg%22%20xmlns%3Axlink%3D%22http%3A%2F%2Fwww.w3.org%2F1999%2Fxlink%22%20x%3D%220px%22%20y%3D%220px%22%0A%09%20viewBox%3D%220%200%2042%2042%22%20style%3D%22enable-background%3Anew%200%200%2042%2042%3B%22%20xml%3Aspace%3D%22preserve%22%3E%0A%3Crect%20y%3D%2219%22%20width%3D%2242%22%20height%3D%224%22%2F%3E%0A%3C%2Fsvg%3E" x="220"/></g></g><g class="node node--5882401c-0b7c-4447-af61-68cce4962a04" transform="translate(222,-32.5)"><rect class="drag-section" fill="transparent" width="130" height="84" y="-42"/><rect class="node__content-container" rx="8" width="105" height="44" y="-22" fill="#F2F2F2"/><g class="node__content-text" transform="translate(20,5)"><text fill="#424242" y="0" style="font-size: 16px; user-select: none;">线程安全</text></g><g class="node__circle-group" style="visibility: hidden;"><rect class="node__circle-count" rx="10" y="-12" width="45" x="105" fill="#F2F2F2" style="visibility: hidden;"/><text y="4" fill="#424242" x="133" style="visibility: hidden; user-select: none;"/><circle class="node__circle" r="12" cx="117" stroke="#F2F2F2" fill="#FFFFFF" stroke-width="2px"/><image class="node__circle-icon" width="12" height="12" y="-6" xmlns:xlink="http://www.w3.org/1999/xlink" xlink:href="data:image/svg+xml;charset=utf-8,%3Csvg%20version%3D%221.1%22%20id%3D%22Capa_1%22%20xmlns%3D%22http%3A%2F%2Fwww.w3.org%2F2000%2Fsvg%22%20xmlns%3Axlink%3D%22http%3A%2F%2Fwww.w3.org%2F1999%2Fxlink%22%20x%3D%220px%22%20y%3D%220px%22%0A%09%20viewBox%3D%220%200%2042%2042%22%20style%3D%22enable-background%3Anew%200%200%2042%2042%3B%22%20xml%3Aspace%3D%22preserve%22%3E%0A%3Crect%20y%3D%2219%22%20width%3D%2242%22%20height%3D%224%22%2F%3E%0A%3C%2Fsvg%3E" x="111"/></g></g><g class="node node--c696a4db-e2b5-4f03-875a-5c67834a40f7" transform="translate(222,552.5)"><rect class="drag-section" fill="transparent" width="95" height="84" y="-42"/><rect class="node__content-container" rx="8" width="70" height="44" y="-22" fill="#F2F2F2"/><g class="node__content-text" transform="translate(20,5)"><text fill="#424242" y="0" style="font-size: 16px; user-select: none;">JUC</text></g><g class="node__circle-group" style="visibility: hidden;"><rect class="node__circle-count" rx="10" y="-12" width="45" x="70" fill="#F2F2F2" style="visibility: hidden;"/><text y="4" fill="#424242" x="98" style="visibility: hidden; user-select: none;"/><circle class="node__circle" r="12" cx="82" stroke="#F2F2F2" fill="#FFFFFF" stroke-width="2px"/><image class="node__circle-icon" width="12" height="12" y="-6" xmlns:xlink="http://www.w3.org/1999/xlink" xlink:href="data:image/svg+xml;charset=utf-8,%3Csvg%20version%3D%221.1%22%20id%3D%22Capa_1%22%20xmlns%3D%22http%3A%2F%2Fwww.w3.org%2F2000%2Fsvg%22%20xmlns%3Axlink%3D%22http%3A%2F%2Fwww.w3.org%2F1999%2Fxlink%22%20x%3D%220px%22%20y%3D%220px%22%0A%09%20viewBox%3D%220%200%2042%2042%22%20style%3D%22enable-background%3Anew%200%200%2042%2042%3B%22%20xml%3Aspace%3D%22preserve%22%3E%0A%3Crect%20y%3D%2219%22%20width%3D%2242%22%20height%3D%224%22%2F%3E%0A%3C%2Fsvg%3E" x="76"/></g></g><g class="node node--ed24bf86-6c2d-47dc-a07f-1806f4e61a4b" transform="translate(387,-650)"><rect class="drag-section" fill="transparent" width="107" height="78" y="-39"/><rect class="node__content-container" rx="8" width="82" height="38" y="-19" fill="transparent"/><g class="node__content-text" transform="translate(20,5)"><text fill="#424242" y="0" style="font-size: 14px; user-select: none;">Ready</text></g></g><g class="node node--b0a831f6-7989-4d58-8d95-277e06a1ad65" transform="translate(387,-585)"><rect class="drag-section" fill="transparent" width="122" height="78" y="-39"/><rect class="node__content-container" rx="8" width="97" height="38" y="-19" fill="transparent"/><g class="node__content-text" transform="translate(20,5)"><text fill="#424242" y="0" style="font-size: 14px; user-select: none;">Running</text></g></g><g class="node node--6abe489c-392e-4c2a-af7e-66f433745499" transform="translate(387,-520)"><rect class="drag-section" fill="transparent" width="119" height="78" y="-39"/><rect class="node__content-container" rx="8" width="94" height="38" y="-19" fill="transparent"/><g class="node__content-text" transform="translate(20,5)"><text fill="#424242" y="0" style="font-size: 14px; user-select: none;">Blocked</text></g></g><g class="node node--1c9b94e9-68c9-426e-9838-4d4b1c92c9e2" transform="translate(387,-455)"><rect class="drag-section" fill="transparent" width="143" height="78" y="-39"/><rect class="node__content-container" rx="8" width="118" height="38" y="-19" fill="transparent"/><g class="node__content-text" transform="translate(20,5)"><text fill="#424242" y="0" style="font-size: 14px; user-select: none;">Terminated</text></g></g><g class="node node--739f7779-d735-458d-b8a1-74a3014d0e66" transform="translate(496,-390)"><rect class="drag-section" fill="transparent" width="144" height="78" y="-39"/><rect class="node__content-container" rx="8" width="119" height="38" y="-19" fill="transparent"/><g class="node__content-text" transform="translate(20,5)"><text fill="#424242" y="0" style="font-size: 14px; user-select: none;">AbortPolicy</text></g></g><g class="node node--be139516-1247-4cff-8d00-9fdbc789341b" transform="translate(496,-325)"><rect class="drag-section" fill="transparent" width="155" height="78" y="-39"/><rect class="node__content-container" rx="8" width="130" height="38" y="-19" fill="transparent"/><g class="node__content-text" transform="translate(20,5)"><text fill="#424242" y="0" style="font-size: 14px; user-select: none;">DiscardPolicy</text></g></g><g class="node node--d83cf289-0865-4824-ad42-1dea5c5f5178" transform="translate(496,-260)"><rect class="drag-section" fill="transparent" width="199" height="78" y="-39"/><rect class="node__content-container" rx="8" width="174" height="38" y="-19" fill="transparent"/><g class="node__content-text" transform="translate(20,5)"><text fill="#424242" y="0" style="font-size: 14px; user-select: none;">DiscardOldestPolicy</text></g></g><g class="node node--109d8921-b2bb-416f-a131-f4b45d3996e9" transform="translate(496,-195)"><rect class="drag-section" fill="transparent" width="176" height="78" y="-39"/><rect class="node__content-container" rx="8" width="151" height="38" y="-19" fill="transparent"/><g class="node__content-text" transform="translate(20,5)"><text fill="#424242" y="0" style="font-size: 14px; user-select: none;">CallerRunsPolicy</text></g></g><g class="node node--e8189d49-edab-40bc-8dfa-79af5f0f6e3d" transform="translate(387,-130)"><rect class="drag-section" fill="transparent" width="95" height="78" y="-39"/><rect class="node__content-container" rx="8" width="70" height="38" y="-19" fill="transparent"/><g class="node__content-text" transform="translate(20,5)"><text fill="#424242" y="0" style="font-size: 14px; user-select: none;">final</text></g></g><g class="node node--ec559773-33b9-4608-ad86-32dd26aaae92" transform="translate(387,-65)"><rect class="drag-section" fill="transparent" width="155" height="78" y="-39"/><rect class="node__content-container" rx="8" width="130" height="38" y="-19" fill="transparent"/><g class="node__content-text" transform="translate(20,5)"><text fill="#424242" y="0" style="font-size: 14px; user-select: none;">synchronized</text></g></g><g class="node node--7a4d3b06-4dfe-413d-a2d5-7b94cf152f90" transform="translate(387,0)"><rect class="drag-section" fill="transparent" width="114" height="78" y="-39"/><rect class="node__content-container" rx="8" width="89" height="38" y="-19" fill="transparent"/><g class="node__content-text" transform="translate(20,5)"><text fill="#424242" y="0" style="font-size: 14px; user-select: none;">volatile</text></g></g><g class="node node--1403be3c-4dc4-4717-ba06-498ddf7280be" transform="translate(387,65)"><rect class="drag-section" fill="transparent" width="147" height="78" y="-39"/><rect class="node__content-container" rx="8" width="122" height="38" y="-19" fill="transparent"/><g class="node__content-text" transform="translate(20,5)"><text fill="#424242" y="0" style="font-size: 14px; user-select: none;">ThreadLocal</text></g></g><g class="node node--8dd6779d-4281-49b1-a714-a333b5832bbc" transform="translate(352,195)"><rect class="drag-section" fill="transparent" width="163" height="78" y="-39"/><rect class="node__content-container" rx="8" width="138" height="38" y="-19" fill="transparent"/><g class="node__content-text" transform="translate(20,5)"><text fill="#424242" y="0" style="font-size: 14px; user-select: none;">锁机制类 Locks</text></g><g class="node__circle-group" style="visibility: hidden;"><rect class="node__circle-count" rx="10" y="-12" width="45" x="138" fill="#F2F2F2" style="visibility: hidden;"/><text y="4" fill="#424242" x="166" style="visibility: hidden; user-select: none;"/><circle class="node__circle" r="12" cx="150" stroke="#F2F2F2" fill="#FFFFFF" stroke-width="2px"/><image class="node__circle-icon" width="12" height="12" y="-6" xmlns:xlink="http://www.w3.org/1999/xlink" xlink:href="data:image/svg+xml;charset=utf-8,%3Csvg%20version%3D%221.1%22%20id%3D%22Capa_1%22%20xmlns%3D%22http%3A%2F%2Fwww.w3.org%2F2000%2Fsvg%22%20xmlns%3Axlink%3D%22http%3A%2F%2Fwww.w3.org%2F1999%2Fxlink%22%20x%3D%220px%22%20y%3D%220px%22%0A%09%20viewBox%3D%220%200%2042%2042%22%20style%3D%22enable-background%3Anew%200%200%2042%2042%3B%22%20xml%3Aspace%3D%22preserve%22%3E%0A%3Crect%20y%3D%2219%22%20width%3D%2242%22%20height%3D%224%22%2F%3E%0A%3C%2Fsvg%3E" x="144"/></g></g><g class="node node--5c74bb0f-db0e-4136-adc3-ceb5eaeae897" transform="translate(352,341.25)"><rect class="drag-section" fill="transparent" width="184" height="78" y="-39"/><rect class="node__content-container" rx="8" width="159" height="38" y="-19" fill="transparent"/><g class="node__content-text" transform="translate(20,5)"><text fill="#424242" y="0" style="font-size: 14px; user-select: none;">原子操作类Atomic</text></g></g><g class="node node--b21bb813-aaba-466d-92f8-8ee2d585430d" transform="translate(352,422.5)"><rect class="drag-section" fill="transparent" width="212" height="78" y="-39"/><rect class="node__content-container" rx="8" width="187" height="38" y="-19" fill="transparent"/><g class="node__content-text" transform="translate(20,5)"><text fill="#424242" y="0" style="font-size: 14px; user-select: none;">线程池相关类 Executor</text></g><g class="node__circle-group" style="visibility: hidden;"><rect class="node__circle-count" rx="10" y="-12" width="45" x="187" fill="#F2F2F2" style="visibility: hidden;"/><text y="4" fill="#424242" x="215" style="visibility: hidden; user-select: none;"/><circle class="node__circle" r="12" cx="199" stroke="#F2F2F2" fill="#FFFFFF" stroke-width="2px"/><image class="node__circle-icon" width="12" height="12" y="-6" xmlns:xlink="http://www.w3.org/1999/xlink" xlink:href="data:image/svg+xml;charset=utf-8,%3Csvg%20version%3D%221.1%22%20id%3D%22Capa_1%22%20xmlns%3D%22http%3A%2F%2Fwww.w3.org%2F2000%2Fsvg%22%20xmlns%3Axlink%3D%22http%3A%2F%2Fwww.w3.org%2F1999%2Fxlink%22%20x%3D%220px%22%20y%3D%220px%22%0A%09%20viewBox%3D%220%200%2042%2042%22%20style%3D%22enable-background%3Anew%200%200%2042%2042%3B%22%20xml%3Aspace%3D%22preserve%22%3E%0A%3Crect%20y%3D%2219%22%20width%3D%2242%22%20height%3D%224%22%2F%3E%0A%3C%2Fsvg%3E" x="193"/></g></g><g class="node node--e5c2a3a2-5a7b-4bf5-835e-adec47e29b0b" transform="translate(352,747.5)"><rect class="drag-section" fill="transparent" width="218" height="78" y="-39"/><rect class="node__content-container" rx="8" width="193" height="38" y="-19" fill="transparent"/><g class="node__content-text" transform="translate(20,5)"><text fill="#424242" y="0" style="font-size: 14px; user-select: none;">信号量三组工具类 Tools</text></g><g class="node__circle-group" style="visibility: hidden;"><rect class="node__circle-count" rx="10" y="-12" width="45" x="193" fill="#F2F2F2" style="visibility: hidden;"/><text y="4" fill="#424242" x="221" style="visibility: hidden; user-select: none;"/><circle class="node__circle" r="12" cx="205" stroke="#F2F2F2" fill="#FFFFFF" stroke-width="2px"/><image class="node__circle-icon" width="12" height="12" y="-6" xmlns:xlink="http://www.w3.org/1999/xlink" xlink:href="data:image/svg+xml;charset=utf-8,%3Csvg%20version%3D%221.1%22%20id%3D%22Capa_1%22%20xmlns%3D%22http%3A%2F%2Fwww.w3.org%2F2000%2Fsvg%22%20xmlns%3Axlink%3D%22http%3A%2F%2Fwww.w3.org%2F1999%2Fxlink%22%20x%3D%220px%22%20y%3D%220px%22%0A%09%20viewBox%3D%220%200%2042%2042%22%20style%3D%22enable-background%3Anew%200%200%2042%2042%3B%22%20xml%3Aspace%3D%22preserve%22%3E%0A%3Crect%20y%3D%2219%22%20width%3D%2242%22%20height%3D%224%22%2F%3E%0A%3C%2Fsvg%3E" x="199"/></g></g><g class="node node--4402ca3d-bfdf-43cd-8814-d51b891241fb" transform="translate(352,910)"><rect class="drag-section" fill="transparent" width="214" height="78" y="-39"/><rect class="node__content-container" rx="8" width="189" height="38" y="-19" fill="transparent"/><g class="node__content-text" transform="translate(20,5)"><text fill="#424242" y="0" style="font-size: 14px; user-select: none;">并发集合类 Collections</text></g><g class="node__circle-group" style="visibility: hidden;"><rect class="node__circle-count" rx="10" y="-12" width="45" x="189" fill="#F2F2F2" style="visibility: hidden;"/><text y="4" fill="#424242" x="217" style="visibility: hidden; user-select: none;"/><circle class="node__circle" r="12" cx="201" stroke="#F2F2F2" fill="#FFFFFF" stroke-width="2px"/><image class="node__circle-icon" width="12" height="12" y="-6" xmlns:xlink="http://www.w3.org/1999/xlink" xlink:href="data:image/svg+xml;charset=utf-8,%3Csvg%20version%3D%221.1%22%20id%3D%22Capa_1%22%20xmlns%3D%22http%3A%2F%2Fwww.w3.org%2F2000%2Fsvg%22%20xmlns%3Axlink%3D%22http%3A%2F%2Fwww.w3.org%2F1999%2Fxlink%22%20x%3D%220px%22%20y%3D%220px%22%0A%09%20viewBox%3D%220%200%2042%2042%22%20style%3D%22enable-background%3Anew%200%200%2042%2042%3B%22%20xml%3Aspace%3D%22preserve%22%3E%0A%3Crect%20y%3D%2219%22%20width%3D%2242%22%20height%3D%224%22%2F%3E%0A%3C%2Fsvg%3E" x="195"/></g></g><g class="node node--3a000db0-53dc-4db4-b2cf-6764414425e6" transform="translate(550,130)"><rect class="drag-section" fill="transparent" width="97" height="78" y="-39"/><rect class="node__content-container" rx="8" width="72" height="38" y="-19" fill="transparent"/><g class="node__content-text" transform="translate(20,5)"><text fill="#424242" y="0" style="font-size: 14px; user-select: none;">Lock</text></g></g><g class="node node--0ef1fd30-488d-4c7e-8be6-82d3263f06e6" transform="translate(550,195)"><rect class="drag-section" fill="transparent" width="132" height="78" y="-39"/><rect class="node__content-container" rx="8" width="107" height="38" y="-19" fill="transparent"/><g class="node__content-text" transform="translate(20,5)"><text fill="#424242" y="0" style="font-size: 14px; user-select: none;">Condition</text></g></g><g class="node node--d05b2b59-15cb-4292-8987-8afbde73778f" transform="translate(550,260)"><rect class="drag-section" fill="transparent" width="167" height="78" y="-39"/><rect class="node__content-container" rx="8" width="142" height="38" y="-19" fill="transparent"/><g class="node__content-text" transform="translate(20,5)"><text fill="#424242" y="0" style="font-size: 14px; user-select: none;">ReadWriteLock</text></g></g><g class="node node--3df41e46-6e49-461d-9559-7cfc40b4e4d8" transform="translate(599,325)"><rect class="drag-section" fill="transparent" width="109" height="78" y="-39"/><rect class="node__content-container" rx="8" width="84" height="38" y="-19" fill="transparent"/><g class="node__content-text" transform="translate(20,5)"><text fill="#424242" y="0" style="font-size: 14px; user-select: none;">Future</text></g></g><g class="node node--724418fe-ea0e-416d-bc54-0f1a635a3436" transform="translate(599,390)"><rect class="drag-section" fill="transparent" width="119" height="78" y="-39"/><rect class="node__content-container" rx="8" width="94" height="38" y="-19" fill="transparent"/><g class="node__content-text" transform="translate(20,5)"><text fill="#424242" y="0" style="font-size: 14px; user-select: none;">Callable</text></g></g><g class="node node--64e7c282-81cf-4c84-8e23-b9accdb3015b" transform="translate(599,455)"><rect class="drag-section" fill="transparent" width="124" height="78" y="-39"/><rect class="node__content-container" rx="8" width="99" height="38" y="-19" fill="transparent"/><g class="node__content-text" transform="translate(20,5)"><text fill="#424242" y="0" style="font-size: 14px; user-select: none;">Executor</text></g></g><g class="node node--88741f7c-79b4-48a6-8a35-529d4ef6a2f3" transform="translate(599,520)"><rect class="drag-section" fill="transparent" width="171" height="78" y="-39"/><rect class="node__content-container" rx="8" width="146" height="38" y="-19" fill="transparent"/><g class="node__content-text" transform="translate(20,5)"><text fill="#424242" y="0" style="font-size: 14px; user-select: none;">ExecutorService</text></g><g class="node__circle-group" style="visibility: hidden;"><rect class="node__circle-count" rx="10" y="-12" width="45" x="146" fill="#F2F2F2" style="visibility: hidden;"/><text y="4" fill="#424242" x="174" style="visibility: hidden; user-select: none;"/><circle class="node__circle" r="12" cx="158" stroke="#F2F2F2" fill="#FFFFFF" stroke-width="2px"/><image class="node__circle-icon" width="12" height="12" y="-6" xmlns:xlink="http://www.w3.org/1999/xlink" xlink:href="data:image/svg+xml;charset=utf-8,%3Csvg%20version%3D%221.1%22%20id%3D%22Capa_1%22%20xmlns%3D%22http%3A%2F%2Fwww.w3.org%2F2000%2Fsvg%22%20xmlns%3Axlink%3D%22http%3A%2F%2Fwww.w3.org%2F1999%2Fxlink%22%20x%3D%220px%22%20y%3D%220px%22%0A%09%20viewBox%3D%220%200%2042%2042%22%20style%3D%22enable-background%3Anew%200%200%2042%2042%3B%22%20xml%3Aspace%3D%22preserve%22%3E%0A%3Crect%20y%3D%2219%22%20width%3D%2242%22%20height%3D%224%22%2F%3E%0A%3C%2Fsvg%3E" x="152"/></g></g><g class="node node--aac162f3-8c0f-4f06-9046-7214c93794aa" transform="translate(605,682.5)"><rect class="drag-section" fill="transparent" width="182" height="78" y="-39"/><rect class="node__content-container" rx="8" width="157" height="38" y="-19" fill="transparent"/><g class="node__content-text" transform="translate(20,5)"><text fill="#424242" y="0" style="font-size: 14px; user-select: none;">CountDownLatch</text></g></g><g class="node node--79f1b1b3-042c-4c02-a2d6-57a1971d6538" transform="translate(605,747.5)"><rect class="drag-section" fill="transparent" width="149" height="78" y="-39"/><rect class="node__content-container" rx="8" width="124" height="38" y="-19" fill="transparent"/><g class="node__content-text" transform="translate(20,5)"><text fill="#424242" y="0" style="font-size: 14px; user-select: none;">CyclicBarrier</text></g></g><g class="node node--724c35a2-cd92-4a4a-bb4d-014de54f1a13" transform="translate(605,812.5)"><rect class="drag-section" fill="transparent" width="143" height="78" y="-39"/><rect class="node__content-container" rx="8" width="118" height="38" y="-19" fill="transparent"/><g class="node__content-text" transform="translate(20,5)"><text fill="#424242" y="0" style="font-size: 14px; user-select: none;">Semaphore</text></g></g><g class="node node--9f0a66d1-1602-4d40-add7-bf0e5b674840" transform="translate(601,877.5)"><rect class="drag-section" fill="transparent" width="215" height="78" y="-39"/><rect class="node__content-container" rx="8" width="190" height="38" y="-19" fill="transparent"/><g class="node__content-text" transform="translate(20,5)"><text fill="#424242" y="0" style="font-size: 14px; user-select: none;">CopyOnWriteArrayList</text></g></g><g class="node node--2453c751-ea51-4d8d-85ec-1f95878018ab" transform="translate(601,942.5)"><rect class="drag-section" fill="transparent" width="171" height="78" y="-39"/><rect class="node__content-container" rx="8" width="146" height="38" y="-19" fill="transparent"/><g class="node__content-text" transform="translate(20,5)"><text fill="#424242" y="0" style="font-size: 14px; user-select: none;">ConcurrentMap</text></g></g><g class="node node--370d68ec-6e5a-42b5-8bff-6de66668b763" transform="translate(805,422.5)"><rect class="drag-section" fill="transparent" width="212" height="78" y="-39"/><rect class="node__content-container" rx="8" width="187" height="38" y="-19" fill="transparent"/><g class="node__content-text" transform="translate(20,5)"><text fill="#424242" y="0" style="font-size: 14px; user-select: none;">SingleThreadExecutor</text></g></g><g class="node node--7014a0f2-b674-405f-ab70-ab4c08fd5a20" transform="translate(805,487.5)"><rect class="drag-section" fill="transparent" width="192" height="78" y="-39"/><rect class="node__content-container" rx="8" width="167" height="38" y="-19" fill="transparent"/><g class="node__content-text" transform="translate(20,5)"><text fill="#424242" y="0" style="font-size: 14px; user-select: none;">CachedThreadPool</text></g></g><g class="node node--487b02f1-59d6-4253-8528-429764750470" transform="translate(805,552.5)"><rect class="drag-section" fill="transparent" width="178" height="78" y="-39"/><rect class="node__content-container" rx="8" width="153" height="38" y="-19" fill="transparent"/><g class="node__content-text" transform="translate(20,5)"><text fill="#424242" y="0" style="font-size: 14px; user-select: none;">FixedThreadPool</text></g></g><g class="node node--de1a3d84-3ee6-424a-a03f-99e7284811a6" transform="translate(805,617.5)"><rect class="drag-section" fill="transparent" width="213" height="78" y="-39"/><rect class="node__content-container" rx="8" width="188" height="38" y="-19" fill="transparent"/><g class="node__content-text" transform="translate(20,5)"><text fill="#424242" y="0" style="font-size: 14px; user-select: none;">ScheduledThreadPool</text></g></g></g></svg>